<svg xmlns="http://www.w3.org/2000/svg" fill-rule="evenodd" stroke-linejoin="round" stroke-miterlimit="2" clip-rule="evenodd" viewBox="0 0 356 356"><path fill="#fbf0cf" d="M126.19,78.263c-0.012,0.451 -0.018,0.902 -0.018,1.353c-0,13.964 5.547,27.356 15.421,37.23c15.101,15.101 51.346,51.346 51.346,51.346l60.409,-60.751l-42.841,-42.842c-9.874,-9.874 -23.267,-15.421 -37.231,-15.421c-13.964,0 -27.356,5.547 -37.23,15.422c-0.003,0.002 -0.005,0.005 -0.008,0.008c-4.032,4.031 -7.342,8.649 -9.848,13.655Z"/><path fill="#ffd541" d="M192.859,168.112l50.584,50.584c9.874,9.874 23.266,15.421 37.23,15.421c13.964,0 27.357,-5.547 37.231,-15.421c0.002,-0.003 0.005,-0.006 0.008,-0.008c4.032,-4.032 7.342,-8.65 9.848,-13.656c0.012,-0.451 0.018,-0.901 0.018,-1.352c-0,-13.964 -5.547,-27.357 -15.421,-37.231l-58.918,-58.917l-60.58,60.58Z"/><path fill="#dde825" d="M22.677,227.975c3.865,-9.677 9.517,-18.799 16.73,-26.9c18.461,-20.735 74.832,-29.366 106.023,8.82c26.692,32.679 26.698,74.808 61.398,107.5c-37.543,11.587 -112.087,25.74 -160.21,-23.439c-19.2,-19.621 -26.363,-43.308 -23.941,-65.981Z"/><path fill="#1c3d57" d="M40.813,175.158c-30.411,34.158 -34.716,85.331 1.834,122.684c27.773,28.382 63.92,36.707 97.366,36.299c49.247,-0.601 92.402,-20.167 92.402,-20.167c1.856,-0.841 3.103,-2.631 3.248,-4.664c0.146,-2.033 -0.834,-3.982 -2.551,-5.079c-30.612,-19.546 -41.146,-44.77 -51.163,-69.523c-7.147,-17.659 -14.049,-35.109 -26.661,-50.55c-20.089,-24.594 -49.872,-31.197 -74.794,-27.656c-16.953,2.408 -31.592,9.572 -39.68,18.656l-0.001,0Zm8.299,7.389c6.681,-7.504 18.942,-13.055 32.944,-15.045c21.512,-3.056 47.287,2.457 64.627,23.685c14.974,18.332 21.251,39.76 30.379,60.689c8.65,19.833 19.661,39.25 41.427,55.715c-14.743,5.465 -45.205,15.032 -78.612,15.44c-30.634,0.373 -63.85,-6.964 -89.288,-32.96c-32.034,-32.737 -28.13,-77.588 -1.477,-107.524Z"/><path fill="#1c3d57" d="M16.733 105.181c4.821 30.95 13.632 56.892 24.727 78.631 27.279 53.449 68.385 81.581 98.633 96.1 2.764 1.327 6.086.16 7.412-2.604 1.327-2.765.16-6.086-2.604-7.413-28.686-13.77-67.674-40.445-93.544-91.134-10.622-20.813-19.03-45.659-23.645-75.291-.472-3.029-3.315-5.106-6.345-4.634-3.03.472-5.106 3.315-4.634 6.345zM170.72 153.829c24.544 24.545 47.76 47.761 68.795 68.795 10.916 10.916 25.721 17.049 41.158 17.049 8.682 0 17.164-1.94 24.866-5.579 2.773-1.31 3.96-4.624 2.65-7.396-1.31-2.773-4.624-3.96-7.396-2.65-6.232 2.944-13.095 4.514-20.12 4.514-12.49 0-24.469-4.962-33.302-13.794-21.034-21.035-44.25-44.251-68.795-68.796-2.168-2.168-5.688-2.168-7.856 0-2.169 2.169-2.169 5.689 0 7.857z"/><path fill="#1c3d57" d="M321.84,222.616c10.916,-10.916 17.049,-25.721 17.049,-41.159c-0,-15.437 -6.133,-30.242 -17.049,-41.158c-29.967,-29.967 -71.882,-71.883 -101.849,-101.85c-10.916,-10.916 -25.722,-17.049 -41.159,-17.049c-15.438,0 -30.243,6.133 -41.159,17.049c-0.002,0.003 -0.005,0.005 -0.008,0.008c-10.916,10.916 -17.049,25.721 -17.049,41.159c0,15.437 6.133,30.243 17.049,41.159c5.179,5.179 10.715,10.715 16.485,16.484c2.168,2.169 5.688,2.169 7.856,0c2.169,-2.168 2.169,-5.688 0,-7.856c-5.769,-5.77 -11.305,-11.306 -16.484,-16.485c-8.833,-8.832 -13.794,-20.811 -13.794,-33.302c-0,-12.491 4.961,-24.47 13.794,-33.302c0.002,-0.003 0.005,-0.006 0.008,-0.008c8.832,-8.833 20.811,-13.794 33.302,-13.794c12.491,-0.001 24.47,4.961 33.302,13.794c29.967,29.967 71.883,71.882 101.85,101.849c8.832,8.833 13.794,20.812 13.794,33.302c-0,12.491 -4.962,24.47 -13.794,33.302c-2.168,2.168 -2.168,5.689 -0,7.857c2.168,2.168 5.688,2.168 7.856,-0Z"/><path fill="#1c3d57" d="M210.206,157.94l60.71,-60.71c2.168,-2.168 2.168,-5.688 -0,-7.856c-2.169,-2.168 -5.689,-2.168 -7.857,-0l-60.71,60.709c-2.168,2.168 -2.168,5.689 0,7.857c2.169,2.168 5.689,2.168 7.857,-0Z"/></svg>