<svg width="1441" height="918" viewBox="0 0 1441 918" fill="none" xmlns="http://www.w3.org/2000/svg">
<path opacity="0.2" d="M460.5 829.5C169.997 848.31 35.5 770 0 743V630.5H1441V845C1204.5 1021 896.057 795.465 663.5 814.5C523 826 530 825 460.5 829.5Z" fill="url(#paint0_linear_2_560)"/>
<path opacity="0.2" d="M1441 2H1V740C424 704 398.5 928 815.5 851C1040.82 809.394 1227.5 922 1441 843V2Z" fill="url(#paint1_linear_2_560)"/>
<path d="M1 0H1441V845C1117 690 1063 925.5 630 800C409.927 736.215 295 676.5 1 740.5V0Z" fill="url(#paint2_linear_2_560)"/>
<g clip-path="url(#clip0_2_560)">
<path opacity="0.1" d="M1090.97 279.268C1114.89 256.464 1145.62 242.118 1178.46 238.419C1211.3 234.721 1244.46 241.874 1272.85 258.785C1214.56 279.655 1150.23 280.422 1090.97 279.268Z" fill="#219F94"/>
<path opacity="0.1" d="M753.095 618.201L816.755 507.93C816.932 507.62 817.188 507.363 817.497 507.183C817.805 507.004 818.156 506.91 818.513 506.91C818.87 506.91 819.221 507.004 819.53 507.183C819.838 507.363 820.094 507.62 820.272 507.93L883.931 618.201C884.117 618.51 884.217 618.862 884.221 619.222C884.225 619.583 884.132 619.937 883.954 620.25C883.775 620.563 883.516 620.822 883.203 621.001C882.891 621.181 882.536 621.273 882.176 621.27H863.186C862.648 621.271 862.132 621.486 861.751 621.867C861.371 622.247 861.156 622.763 861.155 623.302V646.835C861.155 647.373 860.941 647.889 860.562 648.269C860.182 648.65 859.667 648.865 859.129 648.867H834.351C833.813 648.867 833.296 648.653 832.915 648.272C832.534 647.891 832.32 647.374 832.32 646.835V635.461C832.32 634.924 832.106 634.409 831.727 634.029C831.347 633.649 830.832 633.435 830.294 633.435H806.738C806.2 633.435 805.684 633.649 805.304 634.028C804.923 634.408 804.708 634.923 804.706 635.461V646.835C804.706 647.374 804.492 647.891 804.111 648.272C803.73 648.653 803.214 648.867 802.675 648.867H777.903C777.364 648.867 776.848 648.653 776.467 648.272C776.086 647.891 775.872 647.374 775.872 646.835V623.277C775.872 622.738 775.658 622.221 775.277 621.84C774.896 621.459 774.379 621.245 773.84 621.245H754.85C754.494 621.244 754.145 621.15 753.837 620.971C753.529 620.793 753.274 620.537 753.096 620.228C752.918 619.92 752.825 619.571 752.824 619.215C752.824 618.859 752.917 618.509 753.095 618.201ZM841.87 630.403C842.057 630.596 842.28 630.749 842.527 630.854C842.773 630.96 843.038 631.015 843.306 631.017H852.224C852.763 631.017 853.28 630.803 853.661 630.422C854.042 630.041 854.256 629.524 854.256 628.985C854.256 628.447 854.042 627.93 853.661 627.549C853.28 627.168 852.763 626.954 852.224 626.954H843.288C842.886 626.954 842.493 627.073 842.159 627.296C841.825 627.52 841.565 627.837 841.411 628.208C841.258 628.579 841.217 628.988 841.296 629.382C841.374 629.776 841.568 630.138 841.852 630.422L841.87 630.403ZM783.39 630.403C783.577 630.596 783.8 630.749 784.047 630.854C784.293 630.96 784.558 631.015 784.826 631.017H793.738C794.277 631.017 794.794 630.803 795.175 630.422C795.556 630.041 795.77 629.524 795.77 628.985C795.77 628.447 795.556 627.93 795.175 627.549C794.794 627.168 794.277 626.954 793.738 626.954H784.79C784.388 626.954 783.995 627.073 783.661 627.296C783.327 627.52 783.067 627.837 782.913 628.208C782.76 628.579 782.719 628.988 782.798 629.382C782.876 629.776 783.069 630.138 783.353 630.422L783.39 630.403Z" fill="#219F94"/>
<path opacity="0.1" d="M1146.57 619.171L1210.23 508.9C1210.41 508.592 1210.67 508.335 1210.98 508.157C1211.29 507.979 1211.64 507.886 1211.99 507.886C1212.35 507.886 1212.7 507.979 1213.01 508.157C1213.32 508.335 1213.57 508.592 1213.75 508.9L1268.74 604.145C1261.87 612.802 1254.16 620.761 1245.73 627.905H1236.77C1236.23 627.905 1235.71 628.119 1235.33 628.5C1234.95 628.881 1234.74 629.398 1234.74 629.937C1234.74 630.476 1234.95 630.992 1235.33 631.373C1235.71 631.754 1236.23 631.968 1236.77 631.968H1240.55C1235.92 635.451 1230.99 638.518 1225.82 641.133V636.437C1225.82 635.898 1225.6 635.381 1225.22 635C1224.84 634.619 1224.33 634.405 1223.79 634.405H1200.23C1199.69 634.407 1199.18 634.622 1198.8 635.003C1198.42 635.383 1198.2 635.899 1198.2 636.437V647.805C1198.21 648.1 1198.14 648.391 1198.01 648.658C1197.85 649.009 1197.59 649.307 1197.27 649.516C1196.94 649.725 1196.56 649.836 1196.17 649.836H1171.4C1171.08 649.838 1170.77 649.764 1170.49 649.622C1170.21 649.48 1169.97 649.274 1169.78 649.02C1169.51 648.67 1169.36 648.236 1169.37 647.792V624.253C1169.37 623.714 1169.16 623.197 1168.77 622.816C1168.39 622.435 1167.88 622.221 1167.34 622.221H1148.35C1147.99 622.224 1147.64 622.132 1147.33 621.955C1147.01 621.777 1146.76 621.521 1146.58 621.211C1146.4 620.901 1146.3 620.549 1146.3 620.191C1146.3 619.833 1146.39 619.481 1146.57 619.171ZM1188.65 628.5C1188.46 628.308 1188.24 628.155 1187.99 628.05C1187.75 627.944 1187.48 627.889 1187.21 627.887H1178.28C1177.74 627.887 1177.22 628.101 1176.84 628.482C1176.46 628.863 1176.24 629.379 1176.24 629.918C1176.24 630.457 1176.46 630.974 1176.84 631.355C1177.22 631.736 1177.74 631.95 1178.28 631.95H1187.22C1187.62 631.95 1188.01 631.831 1188.35 631.607C1188.68 631.384 1188.94 631.067 1189.09 630.696C1189.25 630.325 1189.29 629.916 1189.21 629.522C1189.13 629.128 1188.94 628.766 1188.65 628.482L1188.65 628.5ZM1228.64 587.694C1229.17 587.694 1229.69 587.48 1230.07 587.099C1230.45 586.718 1230.67 586.202 1230.67 585.663V570.232C1230.67 569.693 1230.45 569.176 1230.07 568.795C1229.69 568.414 1229.17 568.2 1228.64 568.2H1195.34C1194.8 568.202 1194.29 568.416 1193.91 568.797C1193.53 569.178 1193.31 569.694 1193.31 570.232V585.663C1193.31 586.201 1193.53 586.716 1193.91 587.097C1194.29 587.478 1194.8 587.693 1195.34 587.694H1228.64Z" fill="#219F94"/>
<path opacity="0.2" d="M894.942 421.082H973.719V404.043C973.719 402.962 974.149 401.926 974.913 401.161C975.677 400.397 976.714 399.967 977.795 399.967H1000.93V381.817C1000.93 381.137 1001.2 380.484 1001.68 380.003C1002.16 379.522 1002.81 379.251 1003.49 379.251H1033.29C1033.97 379.251 1034.62 379.522 1035.11 380.003C1035.59 380.484 1035.86 381.137 1035.86 381.817V399.961H1063.05C1064.13 399.961 1065.17 400.391 1065.93 401.155C1066.7 401.919 1067.13 402.956 1067.13 404.037V421.076H1142.25C1142.47 421.078 1142.68 421.166 1142.83 421.321C1142.98 421.476 1143.07 421.686 1143.07 421.905V648.112C1143.07 648.33 1142.98 648.54 1142.83 648.695C1142.68 648.851 1142.47 648.939 1142.25 648.94H1092.32C1092.1 648.94 1091.89 648.853 1091.74 648.698C1091.58 648.542 1091.5 648.331 1091.5 648.112V617.679C1091.49 617.46 1091.41 617.25 1091.25 617.095C1091.1 616.94 1090.89 616.852 1090.67 616.85H1069.58C1069.36 616.852 1069.15 616.94 1068.99 617.095C1068.84 617.25 1068.75 617.46 1068.75 617.679V648.112C1068.75 648.33 1068.66 648.54 1068.51 648.695C1068.35 648.851 1068.15 648.939 1067.93 648.94H969.263C969.044 648.939 968.834 648.851 968.679 648.696C968.524 648.541 968.436 648.331 968.435 648.112V617.679C968.435 617.46 968.348 617.25 968.194 617.095C968.04 616.94 967.831 616.852 967.612 616.85H946.523C946.304 616.85 946.093 616.938 945.937 617.093C945.782 617.248 945.695 617.459 945.695 617.679V648.112C945.693 648.331 945.605 648.541 945.45 648.696C945.295 648.851 945.085 648.939 944.866 648.94H894.942C894.723 648.939 894.513 648.851 894.358 648.696C894.203 648.541 894.115 648.331 894.114 648.112V421.911C894.115 421.692 894.203 421.482 894.358 421.327C894.513 421.172 894.723 421.084 894.942 421.082ZM1100.43 606.281C1100.43 606.499 1100.52 606.708 1100.67 606.862C1100.83 607.016 1101.04 607.103 1101.25 607.103H1132.09C1132.2 607.104 1132.31 607.083 1132.41 607.042C1132.51 607.001 1132.6 606.941 1132.68 606.864C1132.75 606.788 1132.81 606.697 1132.85 606.597C1132.9 606.497 1132.92 606.389 1132.92 606.281V595.766C1132.92 595.546 1132.83 595.336 1132.68 595.18C1132.52 595.025 1132.31 594.937 1132.09 594.937H1101.25C1101.04 594.939 1100.83 595.027 1100.67 595.182C1100.52 595.338 1100.43 595.547 1100.43 595.766V606.281ZM1100.43 579.064C1100.43 579.173 1100.45 579.28 1100.49 579.381C1100.53 579.481 1100.59 579.573 1100.67 579.65C1100.75 579.727 1100.84 579.788 1100.94 579.83C1101.04 579.872 1101.15 579.893 1101.25 579.893H1132.09C1132.2 579.894 1132.31 579.873 1132.41 579.832C1132.51 579.79 1132.6 579.729 1132.68 579.652C1132.75 579.575 1132.82 579.483 1132.86 579.382C1132.9 579.281 1132.92 579.173 1132.92 579.064V568.538C1132.92 568.429 1132.9 568.32 1132.86 568.219C1132.82 568.119 1132.75 568.027 1132.68 567.95C1132.6 567.873 1132.51 567.812 1132.41 567.77C1132.31 567.729 1132.2 567.708 1132.09 567.709H1101.25C1101.15 567.709 1101.04 567.73 1100.94 567.772C1100.84 567.814 1100.75 567.875 1100.67 567.952C1100.59 568.029 1100.53 568.12 1100.49 568.221C1100.45 568.321 1100.43 568.429 1100.43 568.538V579.064ZM1100.43 551.854C1100.43 552.073 1100.52 552.283 1100.67 552.438C1100.83 552.593 1101.04 552.681 1101.25 552.683H1132.09C1132.2 552.683 1132.31 552.661 1132.41 552.62C1132.51 552.578 1132.6 552.517 1132.68 552.44C1132.75 552.363 1132.81 552.272 1132.86 552.171C1132.9 552.071 1132.92 551.963 1132.92 551.854V541.321C1132.92 541.102 1132.83 540.891 1132.68 540.735C1132.52 540.58 1132.31 540.493 1132.09 540.493H1101.25C1101.04 540.494 1100.83 540.582 1100.67 540.738C1100.52 540.893 1100.43 541.103 1100.43 541.321V551.854ZM1100.43 524.638C1100.43 524.747 1100.45 524.854 1100.49 524.955C1100.53 525.055 1100.59 525.147 1100.67 525.224C1100.75 525.301 1100.84 525.362 1100.94 525.403C1101.04 525.445 1101.15 525.467 1101.25 525.467H1132.09C1132.2 525.467 1132.31 525.447 1132.41 525.405C1132.51 525.364 1132.6 525.303 1132.68 525.226C1132.75 525.149 1132.82 525.057 1132.86 524.956C1132.9 524.855 1132.92 524.747 1132.92 524.638V514.13C1132.92 514.021 1132.9 513.912 1132.86 513.812C1132.82 513.711 1132.75 513.619 1132.68 513.542C1132.6 513.465 1132.51 513.404 1132.41 513.362C1132.31 513.321 1132.2 513.3 1132.09 513.301H1101.25C1101.15 513.301 1101.04 513.322 1100.94 513.364C1100.84 513.406 1100.75 513.467 1100.67 513.544C1100.59 513.621 1100.53 513.712 1100.49 513.813C1100.45 513.913 1100.43 514.021 1100.43 514.13V524.638ZM1100.43 497.428C1100.43 497.647 1100.52 497.856 1100.67 498.012C1100.83 498.167 1101.04 498.255 1101.25 498.257H1132.09C1132.31 498.257 1132.52 498.169 1132.68 498.014C1132.83 497.858 1132.92 497.648 1132.92 497.428V486.895C1132.92 486.786 1132.9 486.679 1132.85 486.579C1132.81 486.479 1132.75 486.388 1132.68 486.311C1132.6 486.235 1132.51 486.174 1132.41 486.133C1132.31 486.092 1132.2 486.072 1132.09 486.072H1101.25C1101.04 486.072 1100.83 486.159 1100.67 486.313C1100.52 486.468 1100.43 486.677 1100.43 486.895V497.428ZM1100.43 470.218C1100.43 470.436 1100.52 470.645 1100.67 470.799C1100.83 470.954 1101.04 471.04 1101.25 471.04H1132.09C1132.2 471.041 1132.31 471.02 1132.41 470.979C1132.51 470.938 1132.6 470.878 1132.68 470.802C1132.75 470.725 1132.81 470.634 1132.85 470.534C1132.9 470.434 1132.92 470.326 1132.92 470.218V459.685C1132.92 459.465 1132.83 459.254 1132.68 459.099C1132.52 458.944 1132.31 458.856 1132.09 458.856H1101.25C1101.04 458.858 1100.83 458.946 1100.67 459.101C1100.52 459.256 1100.43 459.466 1100.43 459.685V470.218ZM1100.43 443.002C1100.43 443.11 1100.45 443.218 1100.49 443.318C1100.53 443.419 1100.59 443.51 1100.67 443.587C1100.75 443.664 1100.84 443.725 1100.94 443.767C1101.04 443.809 1101.15 443.83 1101.25 443.83H1132.09C1132.2 443.831 1132.31 443.81 1132.41 443.769C1132.51 443.727 1132.6 443.666 1132.68 443.589C1132.75 443.512 1132.82 443.421 1132.86 443.32C1132.9 443.219 1132.92 443.111 1132.92 443.002V432.493C1132.92 432.384 1132.9 432.276 1132.86 432.175C1132.82 432.074 1132.75 431.983 1132.68 431.905C1132.6 431.828 1132.51 431.767 1132.41 431.726C1132.31 431.685 1132.2 431.664 1132.09 431.665H1101.25C1101.15 431.665 1101.04 431.686 1100.94 431.728C1100.84 431.769 1100.75 431.831 1100.67 431.908C1100.59 431.985 1100.53 432.076 1100.49 432.177C1100.45 432.277 1100.43 432.385 1100.43 432.493V443.002ZM1027.33 606.274C1027.33 606.383 1027.35 606.49 1027.39 606.591C1027.43 606.691 1027.49 606.782 1027.57 606.858C1027.65 606.935 1027.74 606.995 1027.84 607.036C1027.94 607.077 1028.05 607.098 1028.15 607.097H1058.99C1059.21 607.097 1059.42 607.01 1059.57 606.856C1059.73 606.702 1059.82 606.493 1059.82 606.274V595.766C1059.82 595.547 1059.73 595.337 1059.57 595.182C1059.42 595.027 1059.21 594.939 1058.99 594.937H1028.15C1027.93 594.937 1027.72 595.025 1027.57 595.18C1027.41 595.336 1027.33 595.546 1027.33 595.766V606.274ZM1027.33 579.058C1027.32 579.167 1027.35 579.275 1027.39 579.376C1027.43 579.477 1027.49 579.569 1027.57 579.646C1027.64 579.723 1027.74 579.784 1027.84 579.825C1027.94 579.867 1028.05 579.888 1028.15 579.887H1058.99C1059.1 579.887 1059.21 579.865 1059.31 579.824C1059.41 579.782 1059.5 579.721 1059.58 579.644C1059.65 579.567 1059.71 579.476 1059.76 579.375C1059.8 579.275 1059.82 579.167 1059.82 579.058V568.538C1059.82 568.429 1059.8 568.321 1059.76 568.22C1059.71 568.12 1059.65 568.029 1059.58 567.952C1059.5 567.875 1059.41 567.814 1059.31 567.772C1059.21 567.73 1059.1 567.709 1058.99 567.709H1028.15C1028.05 567.708 1027.94 567.729 1027.84 567.77C1027.74 567.812 1027.64 567.873 1027.57 567.95C1027.49 568.027 1027.43 568.119 1027.39 568.219C1027.35 568.32 1027.32 568.429 1027.33 568.538V579.058ZM1027.33 551.848C1027.33 552.068 1027.41 552.279 1027.57 552.434C1027.72 552.589 1027.93 552.677 1028.15 552.677H1058.99C1059.21 552.675 1059.42 552.587 1059.57 552.432C1059.73 552.277 1059.82 552.067 1059.82 551.848V541.321C1059.82 541.102 1059.73 540.892 1059.57 540.737C1059.42 540.582 1059.21 540.494 1058.99 540.493H1028.15C1027.93 540.493 1027.72 540.58 1027.57 540.735C1027.41 540.891 1027.33 541.102 1027.33 541.321V551.848ZM1027.33 524.632C1027.32 524.741 1027.35 524.849 1027.39 524.95C1027.43 525.051 1027.49 525.143 1027.57 525.22C1027.64 525.297 1027.74 525.358 1027.84 525.399C1027.94 525.44 1028.05 525.461 1028.15 525.461H1058.99C1059.1 525.461 1059.21 525.439 1059.31 525.397C1059.41 525.356 1059.5 525.295 1059.58 525.218C1059.65 525.141 1059.71 525.05 1059.76 524.949C1059.8 524.848 1059.82 524.741 1059.82 524.632V514.13C1059.82 514.021 1059.8 513.913 1059.76 513.813C1059.71 513.712 1059.65 513.621 1059.58 513.544C1059.5 513.467 1059.41 513.406 1059.31 513.364C1059.21 513.322 1059.1 513.301 1058.99 513.301H1028.15C1028.05 513.3 1027.94 513.321 1027.84 513.362C1027.74 513.404 1027.64 513.465 1027.57 513.542C1027.49 513.619 1027.43 513.711 1027.39 513.812C1027.35 513.912 1027.32 514.021 1027.33 514.13V524.632ZM1027.33 497.422C1027.33 497.642 1027.41 497.852 1027.57 498.008C1027.72 498.163 1027.93 498.25 1028.15 498.25H1058.99C1059.21 498.249 1059.42 498.161 1059.57 498.006C1059.73 497.851 1059.82 497.641 1059.82 497.422V486.895C1059.82 486.676 1059.73 486.467 1059.57 486.313C1059.42 486.159 1059.21 486.072 1058.99 486.072H1028.15C1028.05 486.072 1027.94 486.092 1027.84 486.133C1027.74 486.174 1027.65 486.235 1027.57 486.311C1027.49 486.388 1027.43 486.479 1027.39 486.579C1027.35 486.679 1027.33 486.786 1027.33 486.895V497.422ZM1027.33 470.212C1027.33 470.32 1027.35 470.428 1027.39 470.528C1027.43 470.628 1027.49 470.719 1027.57 470.795C1027.65 470.872 1027.74 470.932 1027.84 470.973C1027.94 471.014 1028.05 471.035 1028.15 471.034H1058.99C1059.21 471.034 1059.42 470.948 1059.57 470.794C1059.73 470.64 1059.82 470.43 1059.82 470.212V459.685C1059.82 459.466 1059.73 459.256 1059.57 459.101C1059.42 458.946 1059.21 458.858 1058.99 458.856H1028.15C1027.93 458.856 1027.72 458.944 1027.57 459.099C1027.41 459.254 1027.33 459.465 1027.33 459.685V470.212ZM1027.33 442.995C1027.32 443.104 1027.35 443.213 1027.39 443.313C1027.43 443.414 1027.49 443.506 1027.57 443.583C1027.64 443.66 1027.74 443.721 1027.84 443.763C1027.94 443.804 1028.05 443.825 1028.15 443.824H1058.99C1059.1 443.824 1059.21 443.803 1059.31 443.761C1059.41 443.719 1059.5 443.658 1059.58 443.581C1059.65 443.504 1059.71 443.413 1059.76 443.313C1059.8 443.212 1059.82 443.104 1059.82 442.995V432.493C1059.82 432.384 1059.8 432.277 1059.76 432.176C1059.71 432.076 1059.65 431.984 1059.58 431.907C1059.5 431.83 1059.41 431.769 1059.31 431.728C1059.21 431.686 1059.1 431.665 1058.99 431.665H1028.15C1028.05 431.664 1027.94 431.685 1027.84 431.726C1027.74 431.767 1027.64 431.828 1027.57 431.905C1027.49 431.983 1027.43 432.074 1027.39 432.175C1027.35 432.276 1027.32 432.384 1027.33 432.493V442.995ZM977.371 606.268C977.371 606.377 977.393 606.484 977.434 606.585C977.476 606.685 977.537 606.776 977.614 606.852C977.691 606.929 977.783 606.989 977.883 607.03C977.984 607.071 978.091 607.092 978.2 607.091H1009.04C1009.25 607.091 1009.46 607.004 1009.62 606.85C1009.77 606.696 1009.86 606.487 1009.86 606.268V595.766C1009.86 595.547 1009.77 595.337 1009.62 595.182C1009.46 595.027 1009.25 594.939 1009.04 594.937H978.2C977.98 594.937 977.769 595.025 977.614 595.18C977.459 595.336 977.371 595.546 977.371 595.766V606.268ZM977.371 579.052C977.37 579.161 977.391 579.269 977.433 579.37C977.474 579.471 977.535 579.563 977.612 579.64C977.689 579.717 977.781 579.778 977.882 579.819C977.983 579.861 978.091 579.882 978.2 579.881H1009.04C1009.14 579.881 1009.25 579.859 1009.35 579.818C1009.45 579.776 1009.54 579.715 1009.62 579.638C1009.7 579.561 1009.76 579.47 1009.8 579.369C1009.84 579.269 1009.86 579.161 1009.86 579.052V568.538C1009.86 568.429 1009.84 568.321 1009.8 568.22C1009.76 568.12 1009.7 568.029 1009.62 567.952C1009.54 567.875 1009.45 567.814 1009.35 567.772C1009.25 567.73 1009.14 567.709 1009.04 567.709H978.2C978.091 567.708 977.983 567.729 977.882 567.77C977.781 567.812 977.689 567.873 977.612 567.95C977.535 568.027 977.474 568.119 977.433 568.219C977.391 568.32 977.37 568.429 977.371 568.538V579.052ZM977.371 551.842C977.371 552.062 977.459 552.273 977.614 552.428C977.769 552.583 977.98 552.671 978.2 552.671H1009.04C1009.25 552.669 1009.46 552.581 1009.62 552.426C1009.77 552.271 1009.86 552.061 1009.86 551.842V541.321C1009.86 541.102 1009.77 540.892 1009.62 540.737C1009.46 540.582 1009.25 540.494 1009.04 540.493H978.2C977.98 540.493 977.769 540.58 977.614 540.735C977.459 540.891 977.371 541.102 977.371 541.321V551.842ZM977.371 524.626C977.37 524.735 977.391 524.843 977.433 524.944C977.474 525.045 977.535 525.136 977.612 525.213C977.689 525.291 977.781 525.352 977.882 525.393C977.983 525.434 978.091 525.455 978.2 525.454H1009.04C1009.14 525.454 1009.25 525.433 1009.35 525.391C1009.45 525.35 1009.54 525.289 1009.62 525.212C1009.7 525.135 1009.76 525.043 1009.8 524.943C1009.84 524.842 1009.86 524.735 1009.86 524.626V514.13C1009.86 514.021 1009.84 513.913 1009.8 513.813C1009.76 513.712 1009.7 513.621 1009.62 513.544C1009.54 513.467 1009.45 513.406 1009.35 513.364C1009.25 513.322 1009.14 513.301 1009.04 513.301H978.2C978.091 513.3 977.983 513.321 977.882 513.362C977.781 513.404 977.689 513.465 977.612 513.542C977.535 513.619 977.474 513.711 977.433 513.812C977.391 513.912 977.37 514.021 977.371 514.13V524.626ZM977.371 497.416C977.371 497.635 977.459 497.846 977.614 498.002C977.769 498.157 977.98 498.244 978.2 498.244H1009.04C1009.25 498.243 1009.46 498.155 1009.62 498C1009.77 497.845 1009.86 497.635 1009.86 497.416V486.895C1009.86 486.676 1009.77 486.467 1009.62 486.313C1009.46 486.159 1009.25 486.072 1009.04 486.072H978.2C978.091 486.072 977.984 486.092 977.883 486.133C977.783 486.174 977.691 486.235 977.614 486.311C977.537 486.388 977.476 486.479 977.434 486.579C977.393 486.679 977.371 486.786 977.371 486.895V497.416ZM977.371 470.206C977.371 470.314 977.393 470.422 977.434 470.522C977.476 470.622 977.537 470.713 977.614 470.789C977.691 470.866 977.783 470.926 977.883 470.967C977.984 471.008 978.091 471.029 978.2 471.028H1009.04C1009.25 471.028 1009.46 470.942 1009.62 470.787C1009.77 470.633 1009.86 470.424 1009.86 470.206V459.685C1009.86 459.466 1009.77 459.256 1009.62 459.101C1009.46 458.946 1009.25 458.858 1009.04 458.856H978.2C977.98 458.856 977.769 458.944 977.614 459.099C977.459 459.254 977.371 459.465 977.371 459.685V470.206ZM977.371 442.989C977.37 443.098 977.391 443.206 977.433 443.307C977.474 443.408 977.535 443.5 977.612 443.577C977.689 443.654 977.781 443.715 977.882 443.757C977.983 443.798 978.091 443.819 978.2 443.818H1009.04C1009.14 443.818 1009.25 443.796 1009.35 443.755C1009.45 443.713 1009.54 443.652 1009.62 443.575C1009.7 443.498 1009.76 443.407 1009.8 443.306C1009.84 443.206 1009.86 443.098 1009.86 442.989V432.493C1009.86 432.384 1009.84 432.277 1009.8 432.176C1009.76 432.076 1009.7 431.984 1009.62 431.907C1009.54 431.83 1009.45 431.769 1009.35 431.728C1009.25 431.686 1009.14 431.665 1009.04 431.665H978.2C978.091 431.664 977.983 431.685 977.882 431.726C977.781 431.767 977.689 431.828 977.612 431.905C977.535 431.983 977.474 432.074 977.433 432.175C977.391 432.276 977.37 432.384 977.371 432.493V442.989ZM904.265 606.262C904.267 606.481 904.355 606.69 904.51 606.844C904.666 606.998 904.875 607.085 905.094 607.085H935.93C936.038 607.085 936.146 607.065 936.246 607.024C936.347 606.983 936.438 606.922 936.515 606.846C936.592 606.77 936.653 606.679 936.695 606.578C936.737 606.478 936.758 606.371 936.758 606.262V595.766C936.758 595.546 936.671 595.336 936.516 595.18C936.36 595.025 936.149 594.937 935.93 594.937H905.088C904.869 594.939 904.659 595.027 904.504 595.182C904.349 595.337 904.261 595.547 904.259 595.766L904.265 606.262ZM904.265 579.046C904.265 579.266 904.353 579.476 904.508 579.632C904.664 579.787 904.874 579.875 905.094 579.875H935.93C936.039 579.875 936.147 579.855 936.248 579.813C936.349 579.772 936.44 579.711 936.517 579.634C936.595 579.557 936.656 579.465 936.697 579.364C936.738 579.263 936.759 579.155 936.758 579.046V568.538C936.759 568.429 936.738 568.32 936.697 568.219C936.656 568.119 936.595 568.027 936.517 567.95C936.44 567.873 936.349 567.812 936.248 567.77C936.147 567.729 936.039 567.708 935.93 567.709H905.088C904.868 567.709 904.657 567.796 904.502 567.952C904.347 568.107 904.259 568.318 904.259 568.538L904.265 579.046ZM904.265 551.836C904.267 552.055 904.355 552.265 904.51 552.42C904.665 552.575 904.875 552.663 905.094 552.664H935.93C936.149 552.664 936.36 552.577 936.516 552.422C936.671 552.266 936.758 552.056 936.758 551.836V541.321C936.758 541.102 936.671 540.891 936.516 540.735C936.36 540.58 936.149 540.493 935.93 540.493H905.088C904.869 540.494 904.659 540.582 904.504 540.737C904.349 540.892 904.261 541.102 904.259 541.321L904.265 551.836ZM904.265 524.62C904.265 524.839 904.353 525.05 904.508 525.206C904.664 525.361 904.874 525.448 905.094 525.448H935.93C936.039 525.449 936.147 525.428 936.248 525.387C936.349 525.345 936.44 525.284 936.517 525.207C936.595 525.13 936.656 525.039 936.697 524.938C936.738 524.837 936.759 524.729 936.758 524.62V514.13C936.759 514.021 936.738 513.912 936.697 513.812C936.656 513.711 936.595 513.619 936.517 513.542C936.44 513.465 936.349 513.404 936.248 513.362C936.147 513.321 936.039 513.3 935.93 513.301H905.088C904.868 513.301 904.657 513.388 904.502 513.544C904.347 513.699 904.259 513.91 904.259 514.13L904.265 524.62ZM904.265 497.409C904.267 497.629 904.355 497.839 904.51 497.994C904.665 498.149 904.875 498.237 905.094 498.238H935.93C936.149 498.238 936.36 498.151 936.516 497.995C936.671 497.84 936.758 497.629 936.758 497.409V486.895C936.758 486.786 936.737 486.679 936.695 486.579C936.653 486.479 936.592 486.388 936.515 486.311C936.438 486.235 936.347 486.174 936.246 486.133C936.146 486.092 936.038 486.072 935.93 486.072H905.088C904.869 486.072 904.659 486.159 904.504 486.313C904.349 486.467 904.261 486.676 904.259 486.895L904.265 497.409ZM904.265 470.199C904.264 470.309 904.284 470.417 904.324 470.519C904.365 470.62 904.425 470.713 904.502 470.791C904.578 470.869 904.669 470.932 904.77 470.974C904.87 471.017 904.979 471.039 905.088 471.04H935.93C936.038 471.041 936.146 471.02 936.246 470.979C936.347 470.938 936.438 470.878 936.515 470.802C936.592 470.725 936.653 470.634 936.695 470.534C936.737 470.434 936.758 470.326 936.758 470.218V459.685C936.758 459.465 936.671 459.254 936.516 459.099C936.36 458.944 936.149 458.856 935.93 458.856H905.088C904.869 458.858 904.659 458.946 904.504 459.101C904.349 459.256 904.261 459.466 904.259 459.685L904.265 470.199ZM904.265 442.983C904.265 443.203 904.353 443.414 904.508 443.569C904.664 443.724 904.874 443.812 905.094 443.812H935.93C936.039 443.813 936.147 443.792 936.248 443.75C936.349 443.709 936.44 443.648 936.517 443.571C936.595 443.494 936.656 443.402 936.697 443.301C936.738 443.2 936.759 443.092 936.758 442.983V432.493C936.759 432.384 936.738 432.276 936.697 432.175C936.656 432.074 936.595 431.983 936.517 431.905C936.44 431.828 936.349 431.767 936.248 431.726C936.147 431.685 936.039 431.664 935.93 431.665H905.088C904.868 431.665 904.657 431.752 904.502 431.907C904.347 432.063 904.259 432.273 904.259 432.493L904.265 442.983Z" fill="white"/>
<path opacity="0.1" d="M1119.29 359.775C1122.76 359.115 1126.34 359.504 1129.59 360.892C1131.54 361.764 1133.66 362.211 1135.8 362.206C1137.94 362.201 1140.05 361.743 1142 360.862C1144.3 359.854 1146.79 359.358 1149.3 359.407C1151.81 359.457 1154.28 360.052 1156.54 361.15C1157.83 361.83 1159.26 362.188 1160.72 362.194C1166.61 362.194 1171.52 356.258 1172.54 348.426C1171.36 347.568 1170.36 346.49 1169.59 345.253C1166.14 339.685 1160.78 336.107 1154.77 336.107C1148.77 336.107 1143.48 339.642 1140.04 345.148C1139.01 346.812 1137.57 348.181 1135.86 349.123C1134.14 350.065 1132.21 350.548 1130.25 350.525H1130.1C1125.36 350.525 1121.3 354.288 1119.29 359.775Z" fill="#219F94"/>
<path opacity="0.1" d="M1101.37 335.192L1110.9 341.232L1105.11 330.718C1106.75 329.41 1108.78 328.686 1110.88 328.661H1111.03C1111.69 328.671 1112.35 328.622 1113.01 328.514L1116.22 330.564L1114.84 328.048C1117.13 327.248 1119.1 325.744 1120.48 323.751L1126.26 327.434L1122.63 320.78C1126.01 316.723 1130.56 314.237 1135.57 314.237C1141.58 314.237 1146.93 317.809 1150.39 323.377C1151.41 325.047 1152.86 326.416 1154.58 327.345C1156.31 328.273 1158.25 328.728 1160.21 328.661H1160.53C1167.17 328.661 1172.54 336.181 1172.54 345.461C1172.54 354.742 1167.17 362.261 1160.53 362.261C1159.07 362.257 1157.63 361.897 1156.35 361.212C1154.09 360.114 1151.62 359.521 1149.11 359.472C1146.6 359.423 1144.11 359.92 1141.81 360.929C1139.87 361.797 1137.76 362.246 1135.63 362.246C1133.5 362.246 1131.4 361.797 1129.45 360.929C1127.17 359.937 1124.7 359.449 1122.21 359.496C1119.73 359.544 1117.28 360.127 1115.04 361.206C1113.76 361.874 1112.34 362.225 1110.9 362.231C1104.27 362.231 1098.89 354.705 1098.89 345.431C1098.85 341.864 1099.7 338.344 1101.37 335.192Z" fill="#219F94"/>
<path opacity="0.1" d="M836.346 471.777C838.772 471.317 841.28 471.589 843.552 472.556C844.913 473.165 846.387 473.48 847.879 473.48C849.37 473.48 850.844 473.165 852.206 472.556C853.815 471.851 855.559 471.503 857.316 471.538C859.073 471.573 860.802 471.99 862.382 472.759C863.284 473.236 864.289 473.486 865.31 473.489C869.434 473.489 872.865 469.334 873.577 463.853C872.755 463.25 872.055 462.496 871.515 461.631C869.097 457.733 865.377 455.229 861.148 455.229C856.92 455.229 853.237 457.684 850.819 461.557C850.098 462.721 849.089 463.68 847.889 464.339C846.688 464.998 845.338 465.336 843.969 465.32H843.859C840.606 465.307 837.764 467.941 836.346 471.777Z" fill="#219F94"/>
<path opacity="0.1" d="M823.813 454.59L830.479 458.819L826.434 451.454C827.581 450.54 829 450.034 830.466 450.017H830.571C831.033 450.023 831.495 449.988 831.952 449.913L834.216 451.343L833.247 449.588C834.846 449.026 836.228 447.976 837.199 446.586L841.256 449.14L838.703 444.493C841.066 441.651 844.227 439.908 847.762 439.908C851.966 439.908 855.741 442.412 858.135 446.31C858.851 447.474 859.863 448.428 861.067 449.075C862.271 449.722 863.625 450.038 864.991 449.993H865.193C869.833 449.993 873.602 455.253 873.602 461.747C873.602 468.241 869.833 473.508 865.193 473.508C864.173 473.505 863.168 473.254 862.265 472.777C860.685 472.008 858.956 471.591 857.199 471.557C855.442 471.524 853.698 471.873 852.089 472.581C850.727 473.186 849.253 473.499 847.762 473.499C846.271 473.499 844.797 473.186 843.435 472.581C841.839 471.888 840.112 471.547 838.372 471.58C836.632 471.614 834.919 472.023 833.351 472.777C832.455 473.241 831.462 473.485 830.454 473.489C825.808 473.489 822.045 468.229 822.045 461.729C822.031 459.239 822.638 456.785 823.813 454.59Z" fill="#219F94"/>
<path opacity="0.1" d="M1200.54 432.493C1198.12 432.034 1195.61 432.305 1193.34 433.273C1191.98 433.882 1190.5 434.197 1189.01 434.197C1187.52 434.197 1186.05 433.882 1184.69 433.273C1183.08 432.567 1181.34 432.22 1179.58 432.255C1177.82 432.29 1176.09 432.706 1174.51 433.475C1173.61 433.951 1172.61 434.202 1171.59 434.206C1167.46 434.206 1164.02 430.05 1163.31 424.569C1164.14 423.968 1164.84 423.213 1165.37 422.347C1167.78 418.437 1171.54 415.92 1175.76 415.92C1179.98 415.92 1183.66 418.376 1186.08 422.249C1186.81 423.415 1187.82 424.375 1189.02 425.036C1190.22 425.697 1191.57 426.037 1192.94 426.024H1193.05C1196.31 426.024 1199.16 428.657 1200.54 432.493Z" fill="#219F94"/>
<path opacity="0.1" d="M1213.11 415.307L1206.45 419.517L1210.5 412.152C1209.35 411.238 1207.93 410.733 1206.47 410.715H1206.36C1205.89 410.721 1205.43 410.686 1204.97 410.611L1202.72 412.041L1203.69 410.286C1202.08 409.724 1200.7 408.674 1199.73 407.284L1195.68 409.85L1198.24 405.203C1195.87 402.361 1192.69 400.618 1189.18 400.618C1184.97 400.618 1181.2 403.122 1178.8 407.02C1178.09 408.185 1177.08 409.139 1175.87 409.786C1174.67 410.433 1173.31 410.749 1171.95 410.703H1171.73C1167.08 410.703 1163.32 415.963 1163.32 422.457C1163.32 428.952 1167.08 434.218 1171.73 434.218C1172.75 434.213 1173.75 433.963 1174.65 433.488C1176.23 432.718 1177.96 432.302 1179.72 432.268C1181.48 432.234 1183.22 432.583 1184.83 433.291C1186.19 433.896 1187.66 434.209 1189.15 434.209C1190.64 434.209 1192.12 433.896 1193.48 433.291C1195.08 432.598 1196.8 432.257 1198.55 432.29C1200.29 432.324 1202 432.733 1203.57 433.488C1204.46 433.952 1205.46 434.196 1206.47 434.2C1211.11 434.2 1214.87 428.939 1214.87 422.439C1214.89 419.952 1214.28 417.5 1213.11 415.307Z" fill="#219F94"/>
<path d="M1212.78 651.702C1204.47 656.981 1192.5 651.641 1184.13 656.84C1181.97 658.178 1180.23 660.148 1177.99 661.364C1175.31 662.831 1172.16 663.095 1169.11 663.205C1143.56 664.193 1117.59 657.067 1092.68 662.825C1085.71 664.433 1078.9 667.048 1071.76 667.428C1059.43 668.097 1047.62 662.082 1035.27 661.75C1016.55 661.247 998.16 673.775 980.096 668.834C974.155 667.207 968.705 663.739 962.573 663.156C955.742 662.542 949.175 665.519 942.534 667.256C918.984 673.394 894.458 663.451 870.109 662.708C854.231 662.223 838.507 665.685 822.641 666.483C811.36 667.048 800.054 666.256 788.785 665.47C784.489 665.169 779.99 664.801 776.393 662.444C772.797 660.087 770.587 655.023 772.809 651.34L1212.78 651.702Z" fill="#3F3D56"/>
<path opacity="0.1" d="M1212.78 651.702C1204.47 656.981 1192.5 651.641 1184.13 656.84C1181.97 658.178 1180.23 660.148 1177.99 661.364C1175.31 662.831 1172.16 663.095 1169.11 663.205C1143.56 664.193 1117.59 657.067 1092.68 662.825C1085.71 664.433 1078.9 667.048 1071.76 667.428C1059.43 668.097 1047.62 662.082 1035.27 661.75C1016.55 661.247 998.16 673.775 980.096 668.834C974.155 667.207 968.705 663.739 962.573 663.156C955.742 662.542 949.175 665.519 942.534 667.256C918.984 673.394 894.458 663.451 870.109 662.708C854.231 662.223 838.507 665.685 822.641 666.483C811.36 667.048 800.054 666.256 788.785 665.47C784.489 665.169 779.99 664.801 776.393 662.444C772.797 660.087 770.587 655.023 772.809 651.34L1212.78 651.702Z" fill="black"/>
<path d="M1212.78 648.633C1204.47 653.912 1192.5 648.572 1184.13 653.771C1181.97 655.109 1180.23 657.079 1177.99 658.295C1175.31 659.762 1172.16 660.026 1169.11 660.136C1143.56 661.124 1117.59 653.998 1092.68 659.756C1085.71 661.364 1078.9 663.979 1071.76 664.359C1059.43 665.028 1047.62 659.013 1035.27 658.681C1016.55 658.178 998.16 670.706 980.096 665.765C974.155 664.138 968.705 660.67 962.573 660.087C955.742 659.473 949.175 662.45 942.534 664.187C918.984 670.325 894.458 660.382 870.109 659.639C854.231 659.154 838.507 662.616 822.641 663.414C811.36 663.979 800.054 663.187 788.785 662.401C784.489 662.1 779.99 661.732 776.393 659.375C772.797 657.018 770.587 651.954 772.809 648.271L1212.78 648.633Z" fill="#3F3D56"/>
<g opacity="0.1">
<path opacity="0.1" d="M1271.91 573.012C1271.88 575.676 1272.56 578.299 1273.89 580.611C1272.59 582.933 1271.91 585.549 1271.91 588.21C1271.91 590.871 1272.59 593.487 1273.89 595.809C1273.22 596.959 1272.71 598.199 1272.39 599.492C1279.09 590.66 1285.26 581.437 1290.86 571.871C1290.72 569.589 1290.06 567.37 1288.92 565.389C1290.24 563.077 1290.93 560.454 1290.9 557.79C1290.91 555.99 1290.61 554.202 1290.01 552.505C1289.72 551.7 1289.36 550.925 1288.92 550.191C1287.19 547.251 1284.46 545.354 1281.41 545.354C1278.35 545.354 1275.62 547.251 1273.89 550.191C1273.47 550.904 1273.11 551.654 1272.83 552.431C1272.21 554.15 1271.9 555.964 1271.91 557.79C1271.88 560.454 1272.56 563.077 1273.89 565.389C1272.56 567.708 1271.88 570.34 1271.91 573.012Z" fill="#3F3D56"/>
<path opacity="0.1" d="M1281.41 555.058C1276.16 555.058 1271.91 549.491 1271.91 542.623C1271.91 535.754 1276.16 530.187 1281.41 530.187C1286.65 530.187 1290.9 535.754 1290.9 542.623C1290.9 549.491 1286.65 555.058 1281.41 555.058Z" fill="#3F3D56"/>
<path opacity="0.1" d="M1281.41 539.86C1276.16 539.86 1271.91 534.293 1271.91 527.425C1271.91 520.557 1276.16 514.989 1281.41 514.989C1286.65 514.989 1290.9 520.557 1290.9 527.425C1290.9 534.293 1286.65 539.86 1281.41 539.86Z" fill="#3F3D56"/>
<path opacity="0.1" d="M1236.11 451.521C1236.09 461.728 1239.53 471.641 1245.85 479.652C1241.04 485.776 1237.87 493.034 1236.67 500.731C1235.46 508.428 1236.25 516.306 1238.96 523.611C1241.67 530.915 1246.21 537.401 1252.14 542.448C1258.08 547.494 1265.21 550.932 1272.86 552.431C1273.95 552.652 1275.06 552.824 1276.18 552.959C1279.65 553.374 1283.15 553.392 1286.62 553.014C1287.77 552.892 1288.91 552.722 1290.04 552.505C1295 551.588 1299.77 549.843 1304.15 547.343C1312.32 530.653 1319.46 513.477 1325.52 495.912C1323.92 490.005 1321.15 484.482 1317.36 479.677C1322.04 473.728 1325.17 466.706 1326.45 459.246C1327.74 451.786 1327.15 444.122 1324.73 436.949L1290.18 448.544L1322.58 431.714C1321.15 428.77 1319.41 425.987 1317.39 423.415C1321.26 418.505 1324.07 412.851 1325.65 406.807C1327.23 400.763 1327.55 394.458 1326.59 388.284C1325.63 382.11 1323.41 376.2 1320.07 370.923C1316.72 365.645 1312.33 361.113 1307.16 357.608C1301.98 354.103 1296.15 351.702 1290 350.552C1283.86 349.403 1277.55 349.531 1271.46 350.928C1265.37 352.325 1259.64 354.962 1254.61 358.673C1249.58 362.384 1245.38 367.091 1242.25 372.5L1275.64 397.052L1239.43 378.269C1237.12 384.021 1236 390.185 1236.15 396.384C1236.3 402.582 1237.71 408.685 1240.3 414.318L1267.31 414.116L1242.35 418.216C1243.41 420.03 1244.6 421.77 1245.89 423.421C1239.56 431.419 1236.12 441.32 1236.11 451.521Z" fill="#219F94"/>
<path opacity="0.1" d="M1236.11 507.807C1236.11 518.351 1239.77 528.566 1246.47 536.709C1253.17 544.852 1262.48 550.418 1272.83 552.456C1273.92 552.677 1275.03 552.849 1276.15 552.984C1279.62 553.398 1283.12 553.417 1286.59 553.039C1287.74 552.916 1288.88 552.746 1290.01 552.529C1294.97 551.612 1299.74 549.867 1304.12 547.367C1312.3 530.67 1319.45 513.486 1325.52 495.912C1323.92 490.005 1321.15 484.482 1317.36 479.676C1323.69 471.657 1327.12 461.736 1327.1 451.521C1327.1 446.414 1239.75 471.912 1245.85 479.652C1239.52 487.67 1236.09 497.592 1236.11 507.807Z" fill="black"/>
</g>
<g opacity="0.1">
<path opacity="0.1" d="M724.088 561.178C725.868 566.862 727.771 572.503 729.723 578.015C730.265 576.39 730.539 574.688 730.533 572.975C730.533 567.494 727.832 562.841 724.088 561.178Z" fill="#3F3D56"/>
<path opacity="0.1" d="M705 463.239C705 474.011 707.173 491.032 711.138 510.502C714.61 527.601 718.943 544.515 724.119 561.178C725.899 566.862 727.801 572.503 729.753 578.015C731.993 584.276 734.356 590.365 736.83 596.19C743.592 593.707 749.672 589.66 754.571 584.379C759.471 579.098 763.052 572.732 765.021 565.803C766.991 558.873 767.294 551.576 765.905 544.507C764.516 537.438 761.474 530.798 757.029 525.129C761.712 519.163 764.837 512.125 766.123 504.65C767.409 497.175 766.815 489.498 764.394 482.31L729.851 493.929L762.246 477.062C760.82 474.112 759.081 471.324 757.06 468.745C761.375 463.243 764.368 456.824 765.811 449.982C767.253 443.14 767.105 436.058 765.378 429.283C763.651 422.507 760.392 416.219 755.851 410.902C751.31 405.585 745.609 401.382 739.187 398.617C725.244 408.13 714.749 421.894 709.266 437.858L715.25 442.314L708.83 438.981C706.676 445.599 705.419 452.475 705.092 459.427H706.897L705.055 459.728C705 460.888 705 462.054 705 463.239Z" fill="#219F94"/>
<path opacity="0.1" d="M711.107 510.502C714.58 527.601 718.912 544.515 724.088 561.178C725.868 566.862 727.771 572.503 729.723 578.015C731.963 584.276 734.326 590.365 736.799 596.19C743.562 593.707 749.641 589.66 754.54 584.379C759.44 579.098 763.021 572.732 764.991 565.803C766.96 558.873 767.263 551.576 765.874 544.507C764.485 537.438 761.444 530.798 756.998 525.129C763.318 517.095 766.747 507.165 766.733 496.943C766.733 493.874 734.989 501.915 711.107 510.502Z" fill="black"/>
</g>
<path opacity="0.1" d="M705.08 459.716C705.08 459.623 705.08 459.525 705.08 459.427C705.407 452.475 706.664 445.599 708.818 438.981C708.94 438.607 709.063 438.226 709.192 437.858C714.675 421.894 725.17 408.13 739.113 398.617C754.742 387.968 773.713 383.375 792.481 385.695C811.25 388.015 828.531 397.09 841.097 411.225C842.412 403.774 844.491 396.478 847.302 389.453C867.781 392.042 888.45 392.813 909.065 391.755C896.432 397.58 883.334 402.337 869.907 405.977L870.386 407.757C885.454 403.665 900.109 398.178 914.159 391.368L918.401 389.312L913.699 389.619C891.797 391.053 869.809 390.422 848.026 387.734C852.739 376.493 859.276 366.107 867.372 356.995C902.7 353.435 937.753 346.02 970.485 331.319L969.73 329.643C937.869 343.964 903.725 351.323 869.256 354.945C880.924 342.437 895.339 332.813 911.365 326.833C927.39 320.853 944.586 318.682 961.595 320.49C978.603 322.298 994.959 328.036 1009.37 337.25C1023.78 346.465 1035.85 358.905 1044.63 373.586C1047.89 341.924 1061.04 312.095 1082.21 288.328C1101.06 295.859 1120.52 301.755 1140.38 305.951C1170.25 312.299 1200.81 314.731 1231.3 313.187C1218.67 319.013 1205.57 323.77 1192.15 327.409L1192.63 329.189C1207.69 325.097 1222.34 319.61 1236.39 312.801L1240.63 310.744L1235.93 311.051C1183.95 314.465 1131.87 306.213 1083.49 286.898C1085.31 284.905 1087.19 282.957 1089.11 281.054C1149.52 282.282 1215.31 281.668 1274.87 259.982C1296.94 273.606 1315.16 292.653 1327.78 315.309C1340.41 337.966 1347.02 363.478 1347 389.416C1347 417.934 1339.16 457.15 1325.52 496.495C1319.44 514.104 1312.28 531.323 1304.09 548.055C1299.92 556.525 1295.5 564.757 1290.85 572.638C1285.25 582.204 1279.08 591.427 1272.38 600.259C1271.18 601.843 1269.96 603.398 1268.73 604.924C1261.87 613.614 1254.16 621.605 1245.73 628.783C1244.02 630.207 1242.31 631.563 1240.58 632.852C1235.95 636.351 1231.02 639.432 1225.85 642.059C1216.84 646.571 1207.55 649.216 1198.04 649.597C1197.28 649.628 1196.52 649.646 1195.76 649.646V649.959H783.304V649.646H782.997C780.62 649.637 778.262 649.222 776.025 648.419C761.442 643.244 748.013 622.467 736.848 596.208C734.393 590.383 732.012 584.294 729.772 578.033C727.795 572.509 725.917 566.88 724.137 561.196C718.961 544.533 714.629 527.62 711.156 510.52C707.222 491.05 705.018 474.03 705.018 463.257C705 462.054 705 460.888 705.08 459.716Z" fill="white"/>
<path d="M1141.97 631.895L1130.22 624.983C1131.81 622.27 1133.84 619.841 1136.23 617.796L1158.39 624.689L1141.02 614.481C1145.32 612.126 1150.16 610.93 1155.06 611.013C1159.96 611.096 1164.76 612.454 1168.98 614.953C1173.19 617.452 1176.69 621.007 1179.12 625.267C1181.54 629.527 1182.82 634.345 1182.82 639.248C1182.82 654.839 1170.18 655.379 1154.58 655.379C1138.99 655.379 1126.35 654.839 1126.35 639.248C1126.35 635.3 1127.17 631.396 1128.78 627.788L1141.97 631.895Z" fill="#219F94"/>
<path opacity="0.1" d="M1138.98 647.05C1140.23 645.797 1141.62 644.701 1143.14 643.784C1145.27 642.366 1147.48 640.918 1149.99 640.439C1152.2 640.016 1154.48 640.372 1156.74 640.243C1160.65 640.004 1164.33 638.319 1167.06 635.516C1168.66 633.859 1169.93 631.833 1171.86 630.551C1173.94 629.188 1176.58 628.893 1179.04 629.231C1179.76 629.333 1180.47 629.479 1181.17 629.667C1182.27 632.739 1182.84 635.982 1182.84 639.248C1182.84 654.839 1170.2 655.379 1154.6 655.379C1147.03 655.379 1140.17 655.25 1135.1 653.341L1135.94 651.758C1136.75 650.067 1137.77 648.486 1138.98 647.05Z" fill="black"/>
<path d="M1011.06 357.971C998.943 357.971 989.119 348.146 989.119 336.027C989.119 323.908 998.943 314.083 1011.06 314.083C1023.18 314.083 1033 323.908 1033 336.027C1033 348.146 1023.18 357.971 1011.06 357.971Z" fill="#3F3D56"/>
<path d="M1023.79 506.727C1021.53 522.619 1024.29 538.823 1028.59 554.285C1029.39 557.164 1030.26 560.067 1031.76 562.651C1033.27 565.235 1035.36 567.457 1037.13 569.888C1040.81 574.958 1042.97 580.936 1044.99 586.854C1050.56 603.227 1055.23 619.889 1059 636.768C1059.22 637.46 1059.22 638.207 1059 638.898C1058.46 640.126 1056.84 640.286 1055.51 640.279L1038.29 640.187C1037.67 639.009 1038.81 637.732 1039.52 636.603C1041.97 632.785 1039.61 627.825 1037.45 623.829C1032.18 614.124 1028.1 603.82 1025.31 593.139C1024.13 588.64 1023.17 584.042 1021.26 579.801C1018.94 574.657 1015.31 570.232 1012.37 565.419C1008.94 559.828 1006.45 553.757 1003.97 547.662C1000.5 539.204 997.012 530.641 995.649 521.606C994.366 513.123 994.999 504.481 995.833 495.942C995.795 495.688 995.817 495.429 995.898 495.185C995.979 494.941 996.117 494.721 996.301 494.541C996.484 494.361 996.708 494.227 996.953 494.151C997.198 494.074 997.458 494.057 997.711 494.101L1020.82 492.91C1025.58 492.665 1026.71 491.621 1025.99 496.298C1025.48 499.791 1024.29 503.192 1023.79 506.727Z" fill="#3F3D56"/>
<path opacity="0.1" d="M1023.79 506.727C1021.53 522.619 1024.29 538.823 1028.59 554.285C1029.39 557.164 1030.26 560.067 1031.76 562.651C1033.27 565.235 1035.36 567.457 1037.13 569.888C1040.81 574.958 1042.97 580.936 1044.99 586.854C1050.56 603.227 1055.23 619.889 1059 636.768C1059.22 637.46 1059.22 638.207 1059 638.898C1058.46 640.126 1056.84 640.286 1055.51 640.279L1038.29 640.187C1037.67 639.009 1038.81 637.732 1039.52 636.603C1041.97 632.785 1039.61 627.825 1037.45 623.829C1032.18 614.124 1028.1 603.82 1025.31 593.139C1024.13 588.64 1023.17 584.042 1021.26 579.801C1018.94 574.657 1015.31 570.232 1012.37 565.419C1008.94 559.828 1006.45 553.757 1003.97 547.662C1000.5 539.204 997.012 530.641 995.649 521.606C994.366 513.123 994.999 504.481 995.833 495.942C995.795 495.688 995.817 495.429 995.898 495.185C995.979 494.941 996.117 494.721 996.301 494.541C996.484 494.361 996.708 494.227 996.953 494.151C997.198 494.074 997.458 494.057 997.711 494.101L1020.82 492.91C1025.58 492.665 1026.71 491.621 1025.99 496.298C1025.48 499.791 1024.29 503.192 1023.79 506.727Z" fill="black"/>
<path d="M1019.25 468.094C1023.94 474.846 1028.87 482.617 1027.31 490.701C1026.12 496.839 1021.45 501.596 1017.03 506.046C999.393 523.76 982.048 543.439 976.045 567.715C974.499 573.988 973.75 580.427 972.418 586.743C970 598.221 965.667 609.196 961.37 620.104L949.856 649.167C946.285 649.255 942.773 648.242 939.798 646.265C936.822 644.289 934.527 641.445 933.223 638.119C934.733 638.002 936.703 636.541 937.587 635.314C942.497 628.519 943.504 619.778 944.762 611.492C946.155 602.334 948.015 593.249 949.881 584.171L958.13 544.004C959.081 539.369 960.032 534.729 961.272 530.162C966.072 512.472 975.168 495.789 976.573 477.498C976.782 474.809 976.911 471.857 978.734 469.862C980.649 467.756 983.791 467.407 986.633 467.241C998.129 466.504 1008.05 465.381 1019.25 468.094Z" fill="#3F3D56"/>
<path d="M1050.26 636.357C1051.51 636.06 1052.79 635.895 1054.08 635.866C1055.31 635.91 1056.52 636.241 1057.6 636.832C1058.68 637.423 1059.61 638.259 1060.32 639.273C1061.03 640.422 1061.6 641.66 1061.99 642.956L1063.65 647.731C1064.15 649.131 1064.62 650.745 1063.89 652.028C1063.35 652.825 1062.57 653.429 1061.66 653.753C1057.63 655.545 1053.07 655.643 1048.71 656.073C1044.45 656.49 1040.23 657.239 1036.02 658.025C1034.57 658.301 1033.13 658.577 1031.67 658.724C1028.39 659.056 1025.09 658.724 1021.81 658.43L1018.43 658.104C1017.29 658.056 1016.17 657.849 1015.1 657.491C1014.56 657.308 1014.07 657.019 1013.65 656.641C1013.22 656.262 1012.88 655.801 1012.64 655.287C1011.81 653.219 1013.6 650.769 1015.79 650.34C1016.68 650.168 1017.63 650.248 1018.51 650.131C1019.53 649.956 1020.53 649.657 1021.48 649.241C1025.77 647.541 1030.17 645.822 1033.98 643.146C1035.03 642.403 1036.14 641.366 1036.02 640.077C1035.91 639.525 1035.73 638.99 1035.48 638.487C1034.96 637.17 1034.94 635.71 1035.43 634.381C1035.64 633.816 1036.04 633.221 1036.61 633.153C1038.23 632.957 1038.04 635.32 1038.28 636.222C1038.6 637.45 1039.19 637.56 1040.34 637.45C1043.66 637.149 1046.97 636.983 1050.26 636.357Z" fill="#F2F2F2"/>
<path d="M953.367 652.85C953.337 655.249 952.513 657.569 951.022 659.449C950.567 660.009 949.998 660.467 949.353 660.793C948.382 661.193 947.331 661.359 946.284 661.278C943.362 661.214 940.475 660.63 937.759 659.553C936.802 659.12 935.818 658.748 934.813 658.442C933.548 658.183 932.269 657.999 930.983 657.89C925.907 657.159 921.451 654.164 916.547 652.648C915.082 652.285 913.646 651.813 912.251 651.236C910.311 650.321 908.74 648.781 907.199 647.289C906.291 646.484 905.509 645.546 904.879 644.509C903.977 642.833 903.922 640.826 903.885 638.929C903.852 638.632 903.903 638.333 904.032 638.064C904.172 637.87 904.364 637.719 904.585 637.628C906.076 636.891 907.844 637.259 909.495 637.548C915.461 638.61 921.568 638.413 927.625 638.217C928.2 638.296 928.785 638.183 929.289 637.896C929.793 637.608 930.187 637.162 930.412 636.627L932.714 632.944C933.37 631.889 934.414 630.679 935.604 631.042C936.556 631.33 936.942 632.496 936.906 633.497C936.869 634.497 936.562 635.492 936.752 636.468C936.888 637.005 937.132 637.509 937.47 637.948C937.808 638.387 938.232 638.752 938.716 639.021C939.683 639.547 940.715 639.943 941.785 640.2C945.173 641.157 949.113 642.244 951.734 644.736C953.661 646.503 953.483 650.462 953.367 652.85Z" fill="#F2F2F2"/>
<path d="M954.558 409.328C953.236 408.318 952.102 407.084 951.206 405.682C950.435 404.1 949.951 402.394 949.776 400.643L948.813 394.554C948.279 391.196 947.653 387.642 945.412 385.083C943.172 382.523 938.71 381.608 936.433 384.137C935.439 385.236 935.046 386.746 934.8 388.213C934.1 392.588 934.388 397.063 935.644 401.312C936.899 405.561 939.09 409.474 942.055 412.765C944.811 415.785 948.193 418.185 951.108 421.04C953.649 423.495 955.853 426.312 958.197 428.982C963.867 435.432 970.361 441.107 977.512 445.862C977.426 441.295 976.843 436.397 977.512 431.861C978.01 428.583 979.354 426.815 976.181 424.673C968.815 419.665 961.383 415.135 954.558 409.328Z" fill="#FBBEBE"/>
<path d="M1016.45 364.41C1016.69 367.675 1018.05 371.014 1020.75 372.899C1013.1 375.575 1005.56 378.525 998.117 381.75C999.553 380.369 999.989 378.251 1000.06 376.262C1000.25 371.063 998.448 365.95 995.821 361.469C995.403 360.901 995.162 360.222 995.128 359.518C995.213 358.069 996.932 357.4 998.344 357.062C1003.16 355.894 1008.08 355.181 1013.02 354.932C1015.14 354.865 1017.65 354.196 1017.17 356.89C1016.72 359.407 1016.26 361.862 1016.45 364.41Z" fill="#FBBEBE"/>
<path d="M1001.66 366.159C991.75 366.159 983.718 358.126 983.718 348.217C983.718 338.308 991.75 330.276 1001.66 330.276C1011.57 330.276 1019.6 338.308 1019.6 348.217C1019.6 358.126 1011.57 366.159 1001.66 366.159Z" fill="#FBBEBE"/>
<path d="M983.896 396.678C984.522 395.33 985.285 394.051 986.173 392.86C989.426 388.189 992.765 383.524 996.938 379.657C1000.1 376.837 1003.52 374.323 1007.16 372.15C1009.12 370.805 1011.28 369.77 1013.55 369.081C1014.9 368.781 1016.28 368.594 1017.66 368.522L1022.32 368.142C1022.73 368.087 1023.14 368.1 1023.54 368.178C1024.81 368.498 1025.39 370.069 1025.12 371.34C1024.85 372.61 1023.89 373.641 1023.04 374.605C1022.83 384.113 1027.06 393.492 1027.63 402.987C1028.63 419.591 1018.5 435.034 1017.69 451.65C1017.61 452.401 1017.69 453.161 1017.92 453.878C1018.06 454.222 1018.26 454.535 1018.41 454.873C1018.89 455.916 1018.87 457.101 1018.96 458.249C1019.29 462.342 1021.09 466.18 1024.01 469.064C1023.25 470.007 1022.27 470.753 1021.16 471.237C1019.21 472.09 1016.87 472.164 1014.79 472.759C1009.36 474.343 1003.8 475.938 998.16 475.601C997.459 474.076 997.025 472.442 996.877 470.77C996.079 470.273 995.158 471.335 995.035 472.268C994.913 473.201 995.091 474.287 994.422 474.963C993.753 475.638 992.906 475.533 992.089 475.429C988.646 474.993 985.338 473.833 981.962 473.054C978.587 472.274 974.978 471.9 971.694 473.017C971.031 472.176 971.313 470.93 971.854 470.009C972.394 469.088 973.161 468.278 973.468 467.253C973.622 466.663 973.688 466.052 973.664 465.442C973.664 460.194 972.584 454.891 973.609 449.741C973.91 448.231 974.388 446.758 974.695 445.242C975.309 442.302 975.217 439.27 975.137 436.268C975.057 433.267 975.42 430.02 975.481 426.975C975.483 425.717 975.565 424.46 975.726 423.212C975.935 421.905 976.34 420.628 976.451 419.309C976.782 415.957 975.432 412.63 975.634 409.267C975.972 404.16 981.907 401.385 983.896 396.678Z" fill="#6461FF"/>
<path d="M1024.39 394.271C1028.73 405.799 1030.85 418.026 1032.98 430.167L1037.89 458.684C1039.28 466.744 1040.68 474.852 1040.63 483.028C1040.63 485.324 1040.48 487.662 1041.08 489.878C1041.87 492.788 1043.82 495.212 1045.3 497.858C1048.3 503.26 1049.3 509.548 1048.12 515.615C1047.62 518.162 1046.24 521.053 1043.66 521.348C1041.53 521.581 1039.7 519.893 1038.46 518.15C1035.61 514.154 1034.2 509.33 1032.94 504.579C1028.87 489.053 1026.02 473.231 1024.42 457.26C1024.27 455.239 1023.99 453.229 1023.57 451.245C1023.03 449.199 1022.33 447.197 1021.49 445.254C1019.62 440.597 1017.74 435.941 1015.85 431.284C1011.52 420.524 1007.15 409.715 1001.19 399.759C1007.08 398.065 1013.22 396.076 1019.11 394.4C1020.81 393.897 1022.63 394.198 1024.39 394.271Z" fill="#FBBEBE"/>
<path d="M1014.17 403.03C1018.3 402.14 1022.56 402.417 1026.77 402.312C1027.37 402.356 1027.97 402.2 1028.47 401.87C1029.32 401.14 1028.96 399.771 1028.53 398.734L1026.49 393.823C1026.16 392.808 1025.6 391.881 1024.86 391.11C1023.82 390.189 1022.36 389.962 1020.99 389.797C1016.51 389.281 1011.91 389.109 1007.57 390.318C1003.23 391.528 999.148 394.277 997.208 398.347C996.398 400.041 996.024 402.177 997.098 403.718C998.693 406.007 1002.27 408.567 1004.94 407.315C1008.14 405.799 1010.59 403.791 1014.17 403.03Z" fill="#7E7CFF"/>
<path d="M992.243 320.35C995.788 320.312 999.266 321.316 1002.25 323.235C1005.07 320.561 1008.55 318.685 1012.34 317.798C1016.12 316.912 1020.07 317.047 1023.79 318.19C1024.18 315.927 1025.19 313.816 1026.71 312.087C1028.22 310.358 1030.18 309.077 1032.37 308.385C1034.56 307.693 1036.89 307.616 1039.13 308.162C1041.36 308.709 1043.39 309.857 1045.02 311.483C1046.64 313.109 1047.79 315.149 1048.33 317.381C1048.87 319.613 1048.79 321.951 1048.09 324.141C1047.4 326.33 1046.11 328.286 1044.38 329.795C1042.65 331.305 1040.54 332.31 1038.28 332.7C1039.08 335.466 1039.34 338.364 1039.03 341.229C1038.72 344.094 1037.85 346.87 1036.47 349.398C1035.08 351.926 1033.22 354.157 1030.97 355.963C1028.73 357.77 1026.15 359.116 1023.38 359.926C1020.62 360.735 1017.72 360.992 1014.85 360.682C1011.99 360.372 1009.21 359.5 1006.69 358.117C1004.16 356.734 1001.93 354.867 1000.12 352.622C998.315 350.376 996.968 347.797 996.159 345.032C994.864 345.297 993.546 345.43 992.224 345.431C983.57 345.431 976.549 339.814 976.549 332.891C976.549 325.967 983.601 320.35 992.243 320.35Z" fill="#3F3D56"/>
<path opacity="0.1" d="M989.119 339.157C990.44 339.161 991.759 339.027 993.053 338.759C993.668 341.004 994.637 343.136 995.925 345.075C994.712 345.308 993.479 345.428 992.243 345.431C984.153 345.431 977.512 340.52 976.659 334.235C979.538 337.23 984.049 339.157 989.119 339.157Z" fill="black"/>
<path opacity="0.1" d="M1014.2 354.834C1017.63 354.829 1021.01 354.02 1024.08 352.471C1027.14 350.922 1029.8 348.676 1031.84 345.915C1033.88 343.153 1035.24 339.951 1035.82 336.567C1036.4 333.183 1036.18 329.71 1035.18 326.427C1038.08 325.916 1040.71 324.398 1042.61 322.139C1044.5 319.881 1045.54 317.026 1045.54 314.077C1045.54 313.324 1045.48 312.572 1045.34 311.831C1046.87 313.485 1047.93 315.521 1048.4 317.725C1048.87 319.929 1048.74 322.219 1048.02 324.354C1047.3 326.49 1046.02 328.392 1044.31 329.861C1042.6 331.33 1040.53 332.311 1038.31 332.7C1040 338.249 1039.42 344.241 1036.7 349.367C1033.99 354.492 1029.36 358.334 1023.82 360.052C1018.28 361.77 1012.28 361.225 1007.14 358.536C1002 355.847 998.138 351.232 996.392 345.701C998.421 348.528 1001.09 350.832 1004.19 352.42C1007.29 354.009 1010.72 354.836 1014.2 354.834Z" fill="black"/>
<path d="M934.155 391.831C934.088 391.737 934.109 391.608 934.201 391.542C934.294 391.476 934.423 391.499 934.49 391.592L936.222 394.021C936.289 394.114 936.269 394.244 936.176 394.31C936.084 394.376 935.955 394.353 935.888 394.26L934.155 391.831Z" fill="#3A3768"/>
<path d="M943.855 381.519C943.818 381.467 943.83 381.394 943.882 381.357C943.935 381.319 944.007 381.332 944.045 381.384L944.558 382.103C944.596 382.156 944.583 382.229 944.531 382.266C944.479 382.304 944.406 382.291 944.368 382.239L943.855 381.519Z" fill="#3A3768"/>
<path d="M945.047 383.214C945.006 383.156 945.019 383.076 945.077 383.034C945.135 382.993 945.216 383.006 945.257 383.064L946.237 384.438C946.279 384.496 946.265 384.577 946.207 384.618C946.149 384.66 946.069 384.646 946.027 384.588L945.047 383.214Z" fill="#3A3768"/>
<path d="M946.57 385.346C946.53 385.29 946.543 385.214 946.598 385.174C946.653 385.135 946.73 385.148 946.769 385.203L947.768 386.602C947.807 386.657 947.794 386.734 947.739 386.773C947.684 386.813 947.607 386.8 947.568 386.745L946.57 385.346Z" fill="#3A3768"/>
<path d="M931.18 386.619L939.894 380.401C940.589 379.905 941.555 380.066 942.051 380.761L956.543 401.072C957.039 401.768 956.877 402.733 956.182 403.23L947.469 409.448C946.774 409.944 945.808 409.782 945.311 409.087L930.82 388.776C930.323 388.081 930.485 387.115 931.18 386.619Z" fill="#3A3768"/>
<path opacity="0.1" d="M931.18 386.619L939.894 380.401C940.589 379.905 941.555 380.066 942.051 380.761L956.543 401.072C957.039 401.768 956.877 402.733 956.182 403.23L947.469 409.448C946.774 409.944 945.808 409.782 945.311 409.087L930.82 388.776C930.323 388.081 930.485 387.115 931.18 386.619Z" fill="black"/>
<path d="M931.749 385.474L940.462 379.256C941.158 378.76 942.123 378.922 942.62 379.617L957.112 399.928C957.608 400.623 957.446 401.589 956.751 402.085L948.038 408.303C947.342 408.799 946.376 408.638 945.88 407.943L931.388 387.632C930.892 386.936 931.054 385.97 931.749 385.474Z" fill="#3A3768"/>
<path d="M932.536 385.844L933.818 384.923L933.929 385.077C934.066 385.265 934.27 385.392 934.499 385.432C934.728 385.472 934.964 385.422 935.156 385.291L939.256 382.364C939.451 382.224 939.582 382.014 939.621 381.778C939.66 381.542 939.604 381.3 939.465 381.105L939.355 380.952L940.582 380.092C940.699 380.008 940.831 379.948 940.971 379.915C941.111 379.882 941.257 379.877 941.399 379.901C941.541 379.924 941.677 379.975 941.799 380.051C941.921 380.127 942.027 380.227 942.11 380.344L956.276 400.201C956.445 400.437 956.513 400.73 956.465 401.017C956.418 401.303 956.26 401.559 956.024 401.729L947.96 407.48C947.842 407.564 947.71 407.624 947.57 407.657C947.429 407.689 947.284 407.693 947.142 407.67C947 407.646 946.864 407.594 946.742 407.517C946.62 407.44 946.514 407.34 946.431 407.223L932.266 387.372C932.182 387.254 932.123 387.121 932.092 386.98C932.06 386.839 932.057 386.694 932.082 386.552C932.107 386.41 932.16 386.274 932.238 386.152C932.316 386.031 932.417 385.926 932.536 385.844Z" fill="#219F94"/>
<path d="M936.27 383.285L937.519 382.393C937.607 382.33 937.73 382.351 937.793 382.439C937.856 382.527 937.836 382.65 937.747 382.713L936.498 383.604C936.41 383.667 936.287 383.647 936.224 383.559C936.161 383.47 936.182 383.348 936.27 383.285Z" fill="#E6E8EC"/>
<path d="M935.838 384.094C935.716 384.094 935.617 383.995 935.617 383.873C935.617 383.751 935.716 383.652 935.838 383.652C935.96 383.652 936.059 383.751 936.059 383.873C936.059 383.995 935.96 384.094 935.838 384.094Z" fill="#E6E8EC"/>
<path d="M935.776 230.55C946.683 230.55 957.142 234.883 964.854 242.596C972.566 250.308 976.899 260.768 976.899 271.675C976.899 294.386 933.812 369.602 933.812 369.602C933.812 369.602 894.654 294.417 894.654 271.675C894.654 260.768 898.986 250.308 906.698 242.596C914.41 234.883 924.87 230.55 935.776 230.55ZM935.776 299.1C940.037 299.1 944.202 297.837 947.745 295.469C951.288 293.102 954.049 289.737 955.68 285.8C957.31 281.864 957.737 277.532 956.906 273.353C956.074 269.173 954.023 265.334 951.01 262.321C947.997 259.308 944.158 257.256 939.979 256.425C935.8 255.594 931.469 256.02 927.532 257.651C923.596 259.282 920.231 262.043 917.864 265.586C915.497 269.129 914.233 273.295 914.233 277.556C914.23 280.387 914.785 283.191 915.866 285.807C916.947 288.424 918.534 290.801 920.535 292.804C922.536 294.807 924.912 296.395 927.527 297.479C930.142 298.562 932.945 299.12 935.776 299.119V299.1Z" fill="#219F94"/>
<path opacity="0.1" d="M935.776 230.55C946.683 230.55 957.142 234.883 964.854 242.596C972.566 250.308 976.899 260.768 976.899 271.675C976.899 294.386 933.812 369.602 933.812 369.602C933.812 369.602 894.654 294.417 894.654 271.675C894.654 260.768 898.986 250.308 906.698 242.596C914.41 234.883 924.87 230.55 935.776 230.55ZM935.776 299.1C940.037 299.1 944.202 297.837 947.745 295.469C951.288 293.102 954.049 289.737 955.68 285.8C957.31 281.864 957.737 277.532 956.906 273.353C956.074 269.173 954.023 265.334 951.01 262.321C947.997 259.308 944.158 257.256 939.979 256.425C935.8 255.594 931.469 256.02 927.532 257.651C923.596 259.282 920.231 262.043 917.864 265.586C915.497 269.129 914.233 273.295 914.233 277.556C914.23 280.387 914.785 283.191 915.866 285.807C916.947 288.424 918.534 290.801 920.535 292.804C922.536 294.807 924.912 296.395 927.527 297.479C930.142 298.562 932.945 299.12 935.776 299.119V299.1Z" fill="black"/>
<path d="M935.776 222C946.683 222 957.142 226.333 964.854 234.045C972.566 241.758 976.899 252.218 976.899 263.125C976.899 285.836 933.812 369.621 933.812 369.621C933.812 369.621 894.654 285.848 894.654 263.131C894.653 257.73 895.716 252.382 897.782 247.391C899.849 242.401 902.878 237.867 906.696 234.047C910.515 230.228 915.048 227.198 920.038 225.131C925.028 223.064 930.376 222 935.776 222ZM935.776 290.55C940.037 290.55 944.202 289.286 947.745 286.919C951.288 284.552 954.049 281.187 955.68 277.25C957.31 273.313 957.737 268.981 956.906 264.802C956.074 260.623 954.023 256.784 951.01 253.771C947.997 250.758 944.158 248.706 939.979 247.875C935.8 247.043 931.469 247.47 927.532 249.101C923.596 250.731 920.231 253.493 917.864 257.036C915.497 260.579 914.233 264.744 914.233 269.005C914.233 271.835 914.79 274.636 915.873 277.25C916.956 279.864 918.542 282.239 920.543 284.24C922.543 286.24 924.918 287.827 927.532 288.91C930.146 289.993 932.947 290.55 935.776 290.55Z" fill="#219F94"/>
<circle cx="789.5" cy="325.5" r="4.5" fill="#FECB42"/>
<circle cx="1041.5" cy="370.5" r="6.5" fill="#6C63FF"/>
</g>
<circle opacity="0.2" cx="333" cy="205" r="6" fill="#70DDFF"/>
<ellipse opacity="0.2" cx="1256" cy="195" rx="6" ry="5" fill="#13F1FC"/>
<circle opacity="0.2" cx="112.5" cy="495.5" r="3.5" fill="#13F1FC"/>
<defs>
<linearGradient id="paint0_linear_2_560" x1="42.4997" y1="553.001" x2="1680.5" y2="996.501" gradientUnits="userSpaceOnUse">
<stop stop-color="#219F94"/>
<stop offset="1" stop-color="#C1DEAE"/>
</linearGradient>
<linearGradient id="paint1_linear_2_560" x1="82.5" y1="763" x2="1441" y2="-288.5" gradientUnits="userSpaceOnUse">
<stop stop-color="#219F94"/>
<stop offset="1" stop-color="#C1DEAE"/>
</linearGradient>
<linearGradient id="paint2_linear_2_560" x1="1.0001" y1="-63.0002" x2="1859.5" y2="1111" gradientUnits="userSpaceOnUse">
<stop stop-color="#219F94"/>
<stop offset="1" stop-color="#C1DEAE"/>
</linearGradient>
<clipPath id="clip0_2_560">
<rect width="642" height="448" fill="white" transform="matrix(-1 0 0 1 1347 222)"/>
</clipPath>
</defs>
</svg>
