<svg width="28" height="35" viewBox="0 0 28 35" fill="none" xmlns="http://www.w3.org/2000/svg">
<mask id="path-1-outside-1_104_362" maskUnits="userSpaceOnUse" x="0" y="0" width="28" height="35" fill="black">
<rect fill="white" width="28" height="35"/>
<path fill-rule="evenodd" clip-rule="evenodd" d="M5 1C2.79086 1 1 2.79086 1 5V22C1 24.2091 2.79087 26 5 26H9.19677C10.8742 27.6477 12.4142 29.7988 12.9157 32.6221C13.0031 33.1145 13.4166 33.4962 13.9167 33.4962C14.4168 33.4962 14.8302 33.1145 14.9177 32.6221C15.4192 29.7988 16.9591 27.6477 18.6366 26H22.8333C25.0425 26 26.8333 24.2091 26.8333 22V5C26.8333 2.79086 25.0425 1 22.8333 1H5Z"/>
</mask>
<path fill-rule="evenodd" clip-rule="evenodd" d="M5 1C2.79086 1 1 2.79086 1 5V22C1 24.2091 2.79087 26 5 26H9.19677C10.8742 27.6477 12.4142 29.7988 12.9157 32.6221C13.0031 33.1145 13.4166 33.4962 13.9167 33.4962C14.4168 33.4962 14.8302 33.1145 14.9177 32.6221C15.4192 29.7988 16.9591 27.6477 18.6366 26H22.8333C25.0425 26 26.8333 24.2091 26.8333 22V5C26.8333 2.79086 25.0425 1 22.8333 1H5Z" fill="#0A20E5"/>
<path d="M9.19677 26L9.89753 25.2866L9.60576 25H9.19677V26ZM12.9157 32.6221L11.9311 32.797L11.9311 32.797L12.9157 32.6221ZM14.9177 32.6221L13.9331 32.4472L13.9331 32.4472L14.9177 32.6221ZM18.6366 26V25H18.2276L17.9358 25.2866L18.6366 26ZM2 5C2 3.34315 3.34315 2 5 2V0C2.23858 0 0 2.23858 0 5H2ZM2 22V5H0V22H2ZM5 25C3.34315 25 2 23.6569 2 22H0C0 24.7614 2.23858 27 5 27V25ZM9.19677 25H5V27H9.19677V25ZM13.9003 32.4472C13.3501 29.3501 11.6637 27.0215 9.89753 25.2866L8.49601 26.7134C10.0847 28.2739 11.4782 30.2475 11.9311 32.797L13.9003 32.4472ZM13.9167 32.4962C13.9201 32.4962 13.9246 32.4971 13.9279 32.4984C13.9305 32.4994 13.9293 32.4995 13.9254 32.496C13.9162 32.4879 13.9045 32.4709 13.9003 32.4472L11.9311 32.797C12.0945 33.7169 12.8829 34.4962 13.9167 34.4962V32.4962ZM13.9331 32.4472C13.9289 32.4709 13.9171 32.4879 13.9079 32.496C13.9041 32.4995 13.9028 32.4994 13.9054 32.4984C13.9087 32.4971 13.9132 32.4962 13.9167 32.4962V34.4962C14.9505 34.4962 15.7388 33.7169 15.9022 32.797L13.9331 32.4472ZM17.9358 25.2866C16.1696 27.0215 14.4832 29.3501 13.9331 32.4472L15.9022 32.797C16.3551 30.2475 17.7486 28.2739 19.3373 26.7134L17.9358 25.2866ZM22.8333 25H18.6366V27H22.8333V25ZM25.8333 22C25.8333 23.6569 24.4902 25 22.8333 25V27C25.5948 27 27.8333 24.7614 27.8333 22H25.8333ZM25.8333 5V22H27.8333V5H25.8333ZM22.8333 2C24.4902 2 25.8333 3.34315 25.8333 5H27.8333C27.8333 2.23857 25.5948 0 22.8333 0V2ZM5 2H22.8333V0H5V2Z" fill="url(#paint0_linear_104_362)" mask="url(#path-1-outside-1_104_362)"/>
<path fill-rule="evenodd" clip-rule="evenodd" d="M13.4583 5C11.6668 5 10.1353 5.6025 8.86382 6.80751C7.62128 7.98513 7 9.42294 7 11.1209C7 11.9699 7.23117 12.9558 7.69351 14.0786C8.15585 15.2015 8.66876 16.2079 9.23224 17.098C9.79572 17.9881 10.4531 18.9055 11.2044 19.8504C11.9557 20.7952 12.4759 21.4251 12.7648 21.74C13.0538 22.055 13.285 22.3083 13.4583 22.5L14.1518 21.8016C14.5853 21.3087 15.1126 20.6446 15.7339 19.8093C16.3552 18.974 16.9837 18.0771 17.6194 17.1185C18.2551 16.16 18.7969 15.133 19.2448 14.0376C19.6927 12.9421 19.9167 11.9699 19.9167 11.1209C19.9167 9.42293 19.2882 7.97829 18.0312 6.78697C16.7742 5.59566 15.2499 5 13.4583 5ZM13.4583 13.75C14.8851 13.75 16.0417 12.6307 16.0417 11.25C16.0417 9.86929 14.8851 8.75 13.4583 8.75C12.0316 8.75 10.875 9.86929 10.875 11.25C10.875 12.6307 12.0316 13.75 13.4583 13.75Z" fill="white"/>
<defs>
<linearGradient id="paint0_linear_104_362" x1="13.9167" y1="1" x2="13.9167" y2="33.4962" gradientUnits="userSpaceOnUse">
<stop stop-color="white"/>
<stop offset="1" stop-color="white" stop-opacity="0.35"/>
</linearGradient>
</defs>
</svg>
